<?xml version="1.0" encoding="utf-8"?>
<!-- Generator: Adobe Illustrator 22.0.1, SVG Export Plug-In . SVG Version: 6.00 Build 0)  -->
<svg version="1.1" xmlns="http://www.w3.org/2000/svg" xmlns:xlink="http://www.w3.org/1999/xlink" x="0px" y="0px"
	 viewBox="0 0 983 444" style="enable-background:new 0 0 983 444;" xml:space="preserve">
<style type="text/css">
	.st0{display:none;}
	.st1{display:inline;fill:#0C0C0C;}
	.st2{fill:#0BA1F4;}
	.st3{fill:none;}
	.st4{opacity:0.15;}
	.st5{fill:#D6D6D6;}
</style>
<g id="Ebene_2" class="st0">
	<rect x="-241" y="-265" class="st1" width="1381" height="906"/>
</g>
<g id="Ebene_1">
	<g>
		<g>
			<path class="st2" d="M168.4,263L52.6,283.4v-12.9l-12.9,2.3V169.9l12.9-2.3v-12.9l115.7-20.4v25.7l-77.2,13.6v77.2l77.2-13.6V263
				z"/>
			<path class="st2" d="M322.7,235.8l-51.4,9.1v-51.4l-25.7,4.5v51.4l-51.4,9.1V142.7l12.9-2.3v-12.9l102.9-18.1v12.9l12.9-2.3
				V235.8z M271.3,167.7V142l-25.7,4.5v25.7L271.3,167.7z"/>
			<path class="st2" d="M477,208.6l-51.4,9.1v-51.4l-25.7,4.5v51.4l-51.4,9.1V102.6l115.7-20.4v12.9l12.9-2.3v38.6l-12.9,2.3v25.7
				l12.9-2.3V208.6z M425.6,140.5v-25.7l-25.7,4.5V145L425.6,140.5z"/>
			<path class="st2" d="M631.3,168.5l-12.9,2.3v12.9L502.7,204v-25.7l77.2-13.6V139l-64.3,11.3v-12.9l-12.9,2.3V88.3l12.9-2.3V73.2
				l115.7-20.4v25.7l-77.2,13.6v25.7l64.3-11.3v12.9l12.9-2.3V168.5z"/>
			<path class="st2" d="M785.6,141.3l-12.9,2.3v12.9l-102.9,18.1v-12.9L657,164V61.1l12.9-2.3V45.9l102.9-18.1v12.9l12.9-2.3V141.3z
				 M734.2,137.5V60.3l-25.7,4.5V142L734.2,137.5z"/>
			<path class="st2" d="M940,126.9l-51.4,9.1V33.1l-25.7,4.5v102.9l-51.4,9.1V21L927.1,0.6v12.9l12.9-2.3V126.9z"/>
		</g>
		<g>
			<path class="st2" d="M129.3,419.9L77.8,429v-51.4L52.1,382v51.4l-51.4,9.1V314l51.4-9.1v51.4l25.7-4.5v-51.4l51.4-9.1v51.4
				l-12.9,2.3v25.7l12.9-2.3V419.9z"/>
			<path class="st2" d="M283.6,379.8l-12.9,2.3v12.9l-102.9,18.1v-12.9l-12.9,2.3V299.6l12.9-2.3v-12.9l102.9-18.1v12.9l12.9-2.3
				V379.8z M232.1,376v-77.2l-25.7,4.5v77.2L232.1,376z"/>
			<path class="st2" d="M515.1,351.9l-51.4,9.1V258l-25.7,4.5v102.9l-51.4,9.1V271.6l-25.7,4.5v102.9l-51.4,9.1V259.5l192.9-34v12.9
				l12.9-2.3V351.9z"/>
			<path class="st2" d="M669.4,260.3l-12.9,2.3v12.9l-64.3,11.3v51.4l-51.4,9.1V218.7l115.7-20.4v12.9l12.9-2.3V260.3z M617.9,256.6
				v-25.7l-25.7,4.5v25.7L617.9,256.6z"/>
			<path class="st2" d="M823.7,284.6l-12.9,2.3v12.9l-102.9,18.1V305l-12.9,2.3V204.4l12.9-2.3v-12.9l102.9-18.1V184l12.9-2.3V284.6
				z M772.2,280.8v-77.2l-25.7,4.5v77.2L772.2,280.8z"/>
			<path class="st2" d="M978,270.2l-51.4,9.1V176.4l-25.7,4.5v102.9l-51.4,9.1V164.3l115.7-20.4v12.9l12.9-2.3V270.2z"/>
		</g>
		<g>
			<polygon class="st3" points="399.8,145 425.6,140.5 425.6,114.8 399.8,119.3 			"/>
			<polygon class="st3" points="862.8,37.7 862.8,76.4 888.5,71.8 888.5,33.1 			"/>
			<polygon class="st3" points="-89,115.2 -89,244.2 39.8,221.5 39.8,169.9 52.6,167.6 52.6,154.8 168.4,134.4 168.4,160.1 
				91.2,173.7 91.2,212.4 194.1,194.3 194.1,142.7 207,140.4 207,127.6 309.8,109.4 309.8,122.3 322.7,120 322.7,171.6 348.4,167.1 
				348.4,102.6 464.1,82.2 464.1,95.1 477,92.8 477,131.4 464.1,133.7 464.1,146.7 515.6,137.6 515.6,137.5 502.7,139.7 502.7,88.3 
				515.6,86 515.6,73.2 631.3,52.8 631.3,78.5 554.2,92.1 554.2,117.8 618.5,106.5 618.5,119.3 631.3,117.1 631.3,117.2 657,112.7 
				657,61.1 669.9,58.8 669.9,45.9 772.8,27.8 772.8,40.7 785.6,38.4 785.6,90 811.4,85.4 811.4,21 927.1,0.6 927.1,13.5 940,11.2 
				940,62.8 1019,48.8 1019,-80.2 			"/>
			<polygon class="st3" points="245.5,172.2 271.3,167.7 271.3,142 245.5,146.5 			"/>
			<polygon class="st3" points="708.5,64.9 708.5,103.6 734.2,99 734.2,60.3 			"/>
			<polygon class="st4" points="168.4,160.1 168.4,134.4 52.6,154.8 52.6,167.6 39.8,169.9 39.8,221.5 91.2,212.4 91.2,173.7 			"/>
			<path class="st4" d="M309.8,122.3v-12.9L207,127.6v12.9l-12.9,2.3v51.6l128.6-22.7V120L309.8,122.3z M271.3,167.7l-25.7,4.5
				v-25.7l25.7-4.5V167.7z"/>
			<path class="st4" d="M477,131.4V92.8l-12.9,2.3V82.2l-115.7,20.4v64.4l115.7-20.4v-13L477,131.4z M425.6,140.5l-25.7,4.5v-25.7
				l25.7-4.5V140.5z"/>
			<polygon class="st4" points="618.5,119.3 618.5,106.5 554.2,117.8 554.2,92.1 631.3,78.5 631.3,52.8 515.6,73.2 515.6,86 
				502.7,88.3 502.7,139.7 515.6,137.5 515.6,137.6 631.3,117.2 631.3,117.1 			"/>
			<polygon class="st4" points="772.8,40.7 772.8,27.8 669.9,45.9 669.9,58.8 657,61.1 657,112.7 708.5,103.6 708.5,64.9 
				734.2,60.3 734.2,99 785.6,90 785.6,38.4 			"/>
			<polygon class="st4" points="927.1,13.5 927.1,0.6 811.4,21 811.4,85.4 862.8,76.4 862.8,37.7 888.5,33.1 888.5,71.8 940,62.8 
				940,11.2 			"/>
		</g>
		<g>
			<polygon class="st3" points="900.8,180.9 900.8,218.7 926.6,214.1 926.6,176.4 			"/>
			<polygon class="st3" points="-18,307.7 -18,380.7 0.7,377.4 0.7,314 52.1,304.9 52.1,356.3 77.8,351.8 77.8,300.3 129.3,291.3 
				129.3,342.7 116.4,345 116.4,357 155,350.2 155,299.6 167.8,297.3 167.8,284.5 270.7,266.3 270.7,279.2 283.6,276.9 283.6,327.5 
				309.3,323 309.3,259.5 502.2,225.5 502.2,238.4 515.1,236.1 515.1,286.7 540.8,282.2 540.8,218.7 656.5,198.3 656.5,211.2 
				669.4,208.9 669.4,259.5 695.1,254.9 695.1,204.4 707.9,202.1 707.9,189.2 810.8,171.1 810.8,184 823.7,181.7 823.7,232.3 
				849.4,227.7 849.4,164.3 965.1,143.9 965.1,156.8 978,154.5 978,205.1 1025,196.8 1025,123.8 			"/>
			<polygon class="st3" points="360.7,276.2 360.7,313.9 386.5,309.4 386.5,271.6 			"/>
			<polygon class="st3" points="746.5,208.2 746.5,245.9 772.2,241.3 772.2,203.6 			"/>
			<polygon class="st3" points="206.4,303.4 206.4,341.1 232.1,336.6 232.1,298.9 			"/>
			<polygon class="st3" points="437.9,262.6 437.9,300.3 463.6,295.8 463.6,258 			"/>
			<polygon class="st3" points="592.2,261.1 617.9,256.6 617.9,230.8 592.2,235.4 			"/>
			<polygon class="st4" points="129.3,342.7 129.3,291.3 77.8,300.3 77.8,351.8 52.1,356.3 52.1,304.9 0.7,314 0.7,377.4 116.4,357 
				116.4,345 			"/>
			<polygon class="st4" points="270.7,279.2 270.7,266.3 167.8,284.5 167.8,297.3 155,299.6 155,350.2 206.4,341.1 206.4,303.4 
				232.1,298.9 232.1,336.6 283.6,327.5 283.6,276.9 			"/>
			<polygon class="st4" points="502.2,238.4 502.2,225.5 309.3,259.5 309.3,323 360.7,313.9 360.7,276.2 386.5,271.6 386.5,309.4 
				437.9,300.3 437.9,262.6 463.6,258 463.6,295.8 515.1,286.7 515.1,236.1 			"/>
			<path class="st4" d="M656.5,211.2v-12.9l-115.7,20.4v63.4l128.6-22.7v-50.6L656.5,211.2z M617.9,256.6l-25.7,4.5v-25.7l25.7-4.5
				V256.6z"/>
			<polygon class="st4" points="810.8,184 810.8,171.1 707.9,189.2 707.9,202.1 695.1,204.4 695.1,254.9 746.5,245.9 746.5,208.2 
				772.2,203.6 772.2,241.3 823.7,232.3 823.7,181.7 			"/>
			<polygon class="st4" points="965.1,156.8 965.1,143.9 849.4,164.3 849.4,227.7 900.8,218.7 900.8,180.9 926.6,176.4 926.6,214.1 
				978,205.1 978,154.5 			"/>
		</g>
	</g>
	<g>
		<path class="st5" d="M580.5,443.1c-25.5,0-43-16.9-43-43.2c0-26.4,17.3-42.8,43.2-42.8c17.1,0,30.3,8.1,37.6,21.8l-19.9,9.8
			c-3.9-8.6-10.2-11.5-17.7-11.5c-12.7,0-18.9,9.8-18.9,22.6c0,15.5,7.4,24.2,19.6,24.2c8,0,14.8-4,16.2-10.8h-18.1v-18.4h41.8
			c0.5,2.2,0.7,6.1,0.7,8.2C622,425.4,607.9,443.1,580.5,443.1z"/>
		<path class="st5" d="M684.1,441.6l-4.2-15.3H653l-4.2,15.3H623l29.5-83h28.4l29.4,83H684.1z M666.4,377.8l-8.4,30h16.7
			L666.4,377.8z"/>
		<path class="st5" d="M793.4,441.6v-58.1l-17.1,58.1h-18.6l-16.8-57.5v57.5H718v-83h33.8l15.6,53.5l15.6-53.5h33.4v83H793.4z"/>
		<path class="st5" d="M832.2,441.6v-83h65.4v20.9h-41.9v10h36.4V408h-36.4v12.7h43.1v20.9H832.2z"/>
		<path class="st5" d="M962.4,385c-4.9-6.9-12.2-9.3-19.4-9.3c-6.1,0-9.8,2.2-9.8,6c0,5,7.6,6.1,15.8,7.4
			c18.1,2.9,32.9,8.1,32.9,25.5c0,16-12.6,28.5-36.3,28.5c-19.2,0-34-8.2-40.8-22.6l18.3-9.1c5.4,9.5,14.1,12.8,23.2,12.8
			c7.7,0,12.5-2.5,12.5-6.6c0-5.9-9.5-6.5-16.1-7.6c-16.5-2.6-33-8.5-33-26.7c0-16.3,13.2-26.3,33.7-26.3c13.3,0,28,4.2,36.9,17.8
			L962.4,385z"/>
	</g>
</g>
</svg>
