<?xml version="1.0" encoding="utf-8"?>
<!-- Generator: Adobe Illustrator 22.0.1, SVG Export Plug-In . SVG Version: 6.00 Build 0)  -->
<svg version="1.1" id="Ebene_1" xmlns="http://www.w3.org/2000/svg" xmlns:xlink="http://www.w3.org/1999/xlink" x="0px" y="0px"
	 viewBox="0 0 983 444" style="enable-background:new 0 0 983 444;" xml:space="preserve">
<style type="text/css">
	.st0{display:none;}
	.st1{display:inline;fill:#0C0C0C;}
</style>
<g id="Ebene_2_1_" class="st0">
	<rect x="-241" y="-265" class="st1" width="1381" height="906"/>
</g>
<g id="Ebene_1_1_">
	<g>
		<g>
			<path d="M168.4,263L52.6,283.4v-12.9l-12.9,2.3V169.9l12.9-2.3v-12.9l115.7-20.4V160l-77.2,13.6v77.2l77.2-13.6V263H168.4z"/>
			<path d="M322.7,235.8l-51.4,9.1v-51.4l-25.7,4.5v51.4l-51.4,9.1V142.7l12.9-2.3v-12.9L310,109.4v12.9l12.9-2.3v115.8H322.7z
				 M271.3,167.7V142l-25.7,4.5v25.7L271.3,167.7z"/>
			<path d="M477,208.6l-51.4,9.1v-51.4l-25.7,4.5v51.4l-51.4,9.1V102.6l115.7-20.4v12.9l12.9-2.3v38.6l-12.9,2.3v25.7l12.9-2.3v51.5
				H477z M425.6,140.5v-25.7l-25.7,4.5V145L425.6,140.5z"/>
			<path d="M631.3,168.5l-12.9,2.3v12.9L502.7,204v-25.7l77.2-13.6V139l-64.3,11.3v-12.9l-12.9,2.3V88.3l12.9-2.3V73.2l115.7-20.4
				v25.7l-77.2,13.6v25.7l64.3-11.3v12.9l12.9-2.3L631.3,168.5L631.3,168.5z"/>
			<path d="M785.6,141.3l-12.9,2.3v12.9l-102.9,18.1v-12.9L657,164V61.1l12.9-2.3V45.9l102.9-18.1v12.9l12.9-2.3v102.9H785.6z
				 M734.2,137.5V60.3l-25.7,4.5V142L734.2,137.5z"/>
			<path d="M940,126.9l-51.4,9.1V33.1l-25.7,4.5v102.9l-51.4,9.1V21L927.1,0.6v12.9l12.9-2.3V126.9z"/>
		</g>
		<g>
			<path d="M129.3,419.9L77.8,429v-51.4L52.1,382v51.4l-51.4,9.1V314l51.4-9.1v51.4l25.7-4.5v-51.4l51.4-9.1v51.4l-12.9,2.3v25.7
				l12.9-2.3L129.3,419.9L129.3,419.9z"/>
			<path d="M283.6,379.8l-12.9,2.3V395l-102.9,18.1v-12.9l-12.9,2.3V299.6l12.9-2.3v-12.9l102.9-18.1v12.9l12.9-2.3V379.8z
				 M232.1,376v-77.2l-25.7,4.5v77.2L232.1,376z"/>
			<path d="M515.1,351.9l-51.4,9.1V258l-25.7,4.5v102.9l-51.4,9.1V271.6l-25.7,4.5V379l-51.4,9.1V259.5l192.9-34v12.9l12.9-2.3
				v115.8H515.1z"/>
			<path d="M669.4,260.3l-12.9,2.3v12.9l-64.3,11.3v51.4l-51.4,9.1V218.7l115.7-20.4v12.9l12.9-2.3V260.3z M617.9,256.6v-25.7
				l-25.7,4.5v25.7L617.9,256.6z"/>
			<path d="M823.7,284.6l-12.9,2.3v12.9l-102.9,18.1V305l-12.9,2.3V204.4l12.9-2.3v-12.9l102.9-18.1V184l12.9-2.3V284.6z
				 M772.2,280.8v-77.2l-25.7,4.5v77.2L772.2,280.8z"/>
			<path d="M978,270.2l-51.4,9.1V176.4l-25.7,4.5v102.9l-51.4,9.1V164.3l115.7-20.4v12.9l12.9-2.3L978,270.2L978,270.2z"/>
		</g>
	</g>
	<g>
		<path d="M580.5,443.1c-25.5,0-43-16.9-43-43.2c0-26.4,17.3-42.8,43.2-42.8c17.1,0,30.3,8.1,37.6,21.8l-19.9,9.8
			c-3.9-8.6-10.2-11.5-17.7-11.5c-12.7,0-18.9,9.8-18.9,22.6c0,15.5,7.4,24.2,19.6,24.2c8,0,14.8-4,16.2-10.8h-18.1v-18.4h41.8
			c0.5,2.2,0.7,6.1,0.7,8.2C622,425.4,607.9,443.1,580.5,443.1z"/>
		<path d="M684.1,441.6l-4.2-15.3H653l-4.2,15.3H623l29.5-83h28.4l29.4,83H684.1z M666.4,377.8l-8.4,30h16.7L666.4,377.8z"/>
		<path d="M793.4,441.6v-58.1l-17.1,58.1h-18.6l-16.8-57.5v57.5H718v-83h33.8l15.6,53.5l15.6-53.5h33.4v83H793.4z"/>
		<path d="M832.2,441.6v-83h65.4v20.9h-41.9v10h36.4V408h-36.4v12.7h43.1v20.9H832.2z"/>
		<path d="M962.4,385c-4.9-6.9-12.2-9.3-19.4-9.3c-6.1,0-9.8,2.2-9.8,6c0,5,7.6,6.1,15.8,7.4c18.1,2.9,32.9,8.1,32.9,25.5
			c0,16-12.6,28.5-36.3,28.5c-19.2,0-34-8.2-40.8-22.6l18.3-9.1c5.4,9.5,14.1,12.8,23.2,12.8c7.7,0,12.5-2.5,12.5-6.6
			c0-5.9-9.5-6.5-16.1-7.6c-16.5-2.6-33-8.5-33-26.7c0-16.3,13.2-26.3,33.7-26.3c13.3,0,28,4.2,36.9,17.8L962.4,385z"/>
	</g>
</g>
</svg>
