<?xml version="1.0" encoding="utf-8"?>
<!-- Generator: Adobe Illustrator 22.0.1, SVG Export Plug-In . SVG Version: 6.00 Build 0)  -->
<svg version="1.1" id="Ebene_1" xmlns="http://www.w3.org/2000/svg" xmlns:xlink="http://www.w3.org/1999/xlink" x="0px" y="0px"
	 viewBox="0 0 1129.3 122.4" style="enable-background:new 0 0 1129.3 122.4;" xml:space="preserve">
<style type="text/css">
	.st0{opacity:0.25;}
</style>
<g>
	<g class="st0">
		<path d="M10.6,10h83.3c0.4,0.1,0.5,0.3,0.5,0.6v27.1c0,0.4-0.2,0.5-0.5,0.5H38.2v13.9h55.7c0.4,0.1,0.5,0.3,0.5,0.6v69.1
			c0,0.4-0.2,0.6-0.5,0.6h-83c-0.4,0-0.6-0.2-0.6-0.6V94.8c0.1-0.4,0.3-0.5,0.6-0.5h55.3V80.3H10.6c-0.4,0-0.6-0.2-0.6-0.6V10.6
			C10.1,10.2,10.3,10,10.6,10z"/>
		<path d="M104.7,10H188c0.4,0.1,0.5,0.3,0.5,0.6v27.1c0,0.4-0.2,0.5-0.5,0.5h-28.3v83.6c0,0.4-0.2,0.6-0.6,0.6h-27
			c-0.4,0-0.6-0.2-0.6-0.6V38.2h-26.7c-0.4,0-0.6-0.2-0.6-0.5V10.6C104.1,10.2,104.4,10,104.7,10z"/>
		<path d="M198.7,10h83.3c0.4,0.1,0.5,0.3,0.5,0.6v27.1c0,0.4-0.2,0.5-0.5,0.5h-55.7v13.9h55.7c0.4,0.1,0.5,0.3,0.5,0.6v27
			c0,0.4-0.2,0.6-0.5,0.6h-55.7v13.9h55.7c0.4,0.1,0.5,0.2,0.5,0.5v27.1c0,0.4-0.2,0.6-0.5,0.6h-83.3c-0.4,0-0.6-0.2-0.6-0.6V10.6
			C198.1,10.2,198.3,10,198.7,10z"/>
		<path d="M293.1,10h82.9c0.4,0.1,0.6,0.3,0.6,0.6v111.2c0,0.4-0.2,0.6-0.6,0.6h-27c-0.4,0-0.6-0.2-0.6-0.6V94.4h-27.7v27.4
			c0,0.4-0.2,0.6-0.6,0.6h-27c-0.4,0-0.6-0.2-0.6-0.6V10.6C292.5,10.2,292.7,10,293.1,10z M320.7,38.2v28h27.7v-28H320.7z"/>
		<path d="M387.2,10h27.1c0.4,0.1,0.5,0.3,0.5,0.6v83.6h55.7c0.4,0.1,0.5,0.2,0.5,0.5v27.1c0,0.4-0.2,0.6-0.5,0.6h-83.3
			c-0.4,0-0.6-0.2-0.6-0.6V10.6C386.6,10.2,386.8,10,387.2,10z"/>
		<path d="M481.1,10h83.3c0.4,0.1,0.5,0.3,0.5,0.6v27.1c0,0.4-0.2,0.5-0.5,0.5h-28.3v83.6c0,0.4-0.2,0.6-0.6,0.6h-27
			c-0.4,0-0.6-0.2-0.6-0.6V38.2h-26.7c-0.4,0-0.6-0.2-0.6-0.5V10.6C480.5,10.2,480.7,10,481.1,10z"/>
		<path d="M575,10h27.1c0.4,0.1,0.5,0.3,0.5,0.6v41.5h28.3V10.6c0.1-0.4,0.3-0.6,0.6-0.6h26.7c0.4,0.1,0.5,0.3,0.5,0.6v111.2
			c0,0.4-0.2,0.6-0.5,0.6h-26.7l-0.6-0.3c-0.2-15-0.3-26.4-0.3-34.4v-7.4h-28v41.5c0,0.4-0.2,0.6-0.5,0.6H575
			c-0.4,0-0.6-0.2-0.6-0.6V10.6C574.5,10.2,574.7,10,575,10z"/>
		<path d="M669.1,10h83.3c0.4,0.1,0.5,0.3,0.5,0.6v27.1c0,0.4-0.2,0.5-0.5,0.5h-55.7v13.9h55.7c0.4,0.1,0.5,0.3,0.5,0.6v69.1
			c0,0.4-0.2,0.6-0.5,0.6h-83c-0.4,0-0.6-0.2-0.6-0.6V94.8c0.1-0.4,0.3-0.5,0.6-0.5h55.3V80.3h-55.6c-0.4,0-0.6-0.2-0.6-0.6V10.6
			C668.6,10.2,668.8,10,669.1,10z"/>
		<path d="M763.2,10h83.3c0.4,0.1,0.5,0.3,0.5,0.6v27.1c0,0.4-0.2,0.5-0.5,0.5h-55.7v56h55.7c0.4,0.1,0.5,0.2,0.5,0.5v27.1
			c0,0.4-0.2,0.6-0.5,0.6h-83.3c-0.4,0-0.6-0.2-0.6-0.6V10.6C762.6,10.2,762.9,10,763.2,10z"/>
		<path d="M857.3,10h82.9c0.4,0.1,0.6,0.3,0.6,0.6v111.2c0,0.4-0.2,0.6-0.6,0.6h-27c-0.4,0-0.6-0.2-0.6-0.6V94.4h-27.7v27.4
			c0,0.4-0.2,0.6-0.6,0.6h-27c-0.4,0-0.6-0.2-0.6-0.6V10.6C856.7,10.2,857,10,857.3,10z M884.9,38.2v28h27.7v-28H884.9z"/>
		<path d="M951.4,10h83.3c0.4,0.1,0.5,0.3,0.5,0.6v76.8c0,0.4-0.2,0.6-0.5,0.6H979v33.8c0,0.4-0.2,0.6-0.5,0.6h-27.1
			c-0.4,0-0.6-0.2-0.6-0.6V10.6C950.8,10.2,951,10,951.4,10z M979,38.2v21.6h28.3V38.2H979z"/>
		<path d="M1045.5,10h83.3c0.4,0.1,0.5,0.3,0.5,0.6v27.1c0,0.4-0.2,0.5-0.5,0.5h-55.7v13.9h55.7c0.4,0.1,0.5,0.3,0.5,0.6v27
			c0,0.4-0.2,0.6-0.5,0.6h-55.7v13.9h55.7c0.4,0.1,0.5,0.2,0.5,0.5v27.1c0,0.4-0.2,0.6-0.5,0.6h-83.3c-0.4,0-0.6-0.2-0.6-0.6V10.6
			C1044.9,10.2,1045.1,10,1045.5,10z"/>
	</g>
	<g>
		<path d="M0.6,0h83.3c0.4,0.1,0.5,0.3,0.5,0.6v27.1c0,0.4-0.2,0.5-0.5,0.5H28.2v13.9h55.7c0.4,0.1,0.5,0.3,0.5,0.6v69.1
			c0,0.4-0.2,0.6-0.5,0.6h-83c-0.4,0-0.6-0.2-0.6-0.6V84.8c0.1-0.4,0.3-0.5,0.6-0.5h55.3V70.3H0.6c-0.4,0-0.6-0.2-0.6-0.6V0.6
			C0.1,0.2,0.3,0,0.6,0z"/>
		<path d="M94.7,0H178c0.4,0.1,0.5,0.3,0.5,0.6v27.1c0,0.4-0.2,0.5-0.5,0.5h-28.3v83.6c0,0.4-0.2,0.6-0.6,0.6h-27
			c-0.4,0-0.6-0.2-0.6-0.6V28.2H94.7c-0.4,0-0.6-0.2-0.6-0.5V0.6C94.1,0.2,94.4,0,94.7,0z"/>
		<path d="M188.7,0h83.3c0.4,0.1,0.5,0.3,0.5,0.6v27.1c0,0.4-0.2,0.5-0.5,0.5h-55.7v13.9h55.7c0.4,0.1,0.5,0.3,0.5,0.6v27
			c0,0.4-0.2,0.6-0.5,0.6h-55.7v13.9h55.7c0.4,0.1,0.5,0.2,0.5,0.5v27.1c0,0.4-0.2,0.6-0.5,0.6h-83.3c-0.4,0-0.6-0.2-0.6-0.6V0.6
			C188.1,0.2,188.3,0,188.7,0z"/>
		<path d="M283.1,0h82.9c0.4,0.1,0.6,0.3,0.6,0.6v111.2c0,0.4-0.2,0.6-0.6,0.6h-27c-0.4,0-0.6-0.2-0.6-0.6V84.4h-27.7v27.4
			c0,0.4-0.2,0.6-0.6,0.6h-27c-0.4,0-0.6-0.2-0.6-0.6V0.6C282.5,0.2,282.7,0,283.1,0z M310.7,28.2v28h27.7v-28H310.7z"/>
		<path d="M377.2,0h27.1c0.4,0.1,0.5,0.3,0.5,0.6v83.6h55.7c0.4,0.1,0.5,0.2,0.5,0.5v27.1c0,0.4-0.2,0.6-0.5,0.6h-83.3
			c-0.4,0-0.6-0.2-0.6-0.6V0.6C376.6,0.2,376.8,0,377.2,0z"/>
		<path d="M471.1,0h83.3c0.4,0.1,0.5,0.3,0.5,0.6v27.1c0,0.4-0.2,0.5-0.5,0.5h-28.3v83.6c0,0.4-0.2,0.6-0.6,0.6h-27
			c-0.4,0-0.6-0.2-0.6-0.6V28.2h-26.7c-0.4,0-0.6-0.2-0.6-0.5V0.6C470.5,0.2,470.7,0,471.1,0z"/>
		<path d="M565,0h27.1c0.4,0.1,0.5,0.3,0.5,0.6v41.5h28.3V0.6c0.1-0.4,0.3-0.6,0.6-0.6h26.7c0.4,0.1,0.5,0.3,0.5,0.6v111.2
			c0,0.4-0.2,0.6-0.5,0.6h-26.7l-0.6-0.3c-0.2-15-0.3-26.4-0.3-34.4v-7.4h-28v41.5c0,0.4-0.2,0.6-0.5,0.6H565
			c-0.4,0-0.6-0.2-0.6-0.6V0.6C564.5,0.2,564.7,0,565,0z"/>
		<path d="M659.1,0h83.3c0.4,0.1,0.5,0.3,0.5,0.6v27.1c0,0.4-0.2,0.5-0.5,0.5h-55.7v13.9h55.7c0.4,0.1,0.5,0.3,0.5,0.6v69.1
			c0,0.4-0.2,0.6-0.5,0.6h-83c-0.4,0-0.6-0.2-0.6-0.6V84.8c0.1-0.4,0.3-0.5,0.6-0.5h55.3V70.3h-55.6c-0.4,0-0.6-0.2-0.6-0.6V0.6
			C658.6,0.2,658.8,0,659.1,0z"/>
		<path d="M753.2,0h83.3c0.4,0.1,0.5,0.3,0.5,0.6v27.1c0,0.4-0.2,0.5-0.5,0.5h-55.7v56h55.7c0.4,0.1,0.5,0.2,0.5,0.5v27.1
			c0,0.4-0.2,0.6-0.5,0.6h-83.3c-0.4,0-0.6-0.2-0.6-0.6V0.6C752.6,0.2,752.9,0,753.2,0z"/>
		<path d="M847.3,0h82.9c0.4,0.1,0.6,0.3,0.6,0.6v111.2c0,0.4-0.2,0.6-0.6,0.6h-27c-0.4,0-0.6-0.2-0.6-0.6V84.4h-27.7v27.4
			c0,0.4-0.2,0.6-0.6,0.6h-27c-0.4,0-0.6-0.2-0.6-0.6V0.6C846.7,0.2,847,0,847.3,0z M874.9,28.2v28h27.7v-28H874.9z"/>
		<path d="M941.4,0h83.3c0.4,0.1,0.5,0.3,0.5,0.6v76.8c0,0.4-0.2,0.6-0.5,0.6H969v33.8c0,0.4-0.2,0.6-0.5,0.6h-27.1
			c-0.4,0-0.6-0.2-0.6-0.6V0.6C940.8,0.2,941,0,941.4,0z M969,28.2v21.6h28.3V28.2H969z"/>
		<path d="M1035.5,0h83.3c0.4,0.1,0.5,0.3,0.5,0.6v27.1c0,0.4-0.2,0.5-0.5,0.5h-55.7v13.9h55.7c0.4,0.1,0.5,0.3,0.5,0.6v27
			c0,0.4-0.2,0.6-0.5,0.6h-55.7v13.9h55.7c0.4,0.1,0.5,0.2,0.5,0.5v27.1c0,0.4-0.2,0.6-0.5,0.6h-83.3c-0.4,0-0.6-0.2-0.6-0.6V0.6
			C1034.9,0.2,1035.1,0,1035.5,0z"/>
	</g>
</g>
</svg>
