<?xml version="1.0" encoding="utf-8"?>
<!-- Generator: Adobe Illustrator 19.0.0, SVG Export Plug-In . SVG Version: 6.00 Build 0)  -->
<svg version="1.1" id="Layer_1" xmlns="http://www.w3.org/2000/svg" xmlns:xlink="http://www.w3.org/1999/xlink" x="0px" y="0px"
	 viewBox="130 -36 292 104" style="enable-background:new 130 -36 292 104;" xml:space="preserve">
<style type="text/css">
	.st0{fill:#FFFFFF;}
</style>
<path class="st0" d="M414.4,68V-36h7.6V68H414.4z M371.9-1.3h7.6v33h-8l-11.9-21.2v21.2H352v-33h8l11.9,21.5V-1.3z M321.9-2.2
	c10.9,0,17.4,8.3,17.4,17.3c0,9-6.5,17.3-17.4,17.3c-11,0-17.5-8.3-17.5-17.3C304.4,6.1,310.9-2.2,321.9-2.2z M331.6,15.2
	c0-5.4-3.7-10.5-9.7-10.5c-6,0-9.7,5-9.7,10.5s3.6,10.5,9.7,10.5C327.9,25.6,331.6,20.6,331.6,15.2z M198.7,5.3v-6.6h22.6v6.6h-7.5
	v26.4h-7.6V5.3H198.7z M279.6,12.3H292v6h-12.5v7.3H292v6.1h-20.1v-33H292v6.1h-12.5V12.3z M247-1.3c7.3,0,12,5.5,12,11.9
	c0,4.6-2.4,8.7-6.5,10.6l6.6,10.4h-8.9l-5.8-9.1h-3.6v9.1h-7.6v-33H247z M251.2,10.6c0-3.1-2.1-5.7-5.3-5.7h-5.2v11.4h5.2
	C249.2,16.3,251.2,13.6,251.2,10.6z M183.7,27.6H172l-1.3,4h-8.1l11.8-33h7l11.9,33H185L183.7,27.6z M177.9,8.1l-4.1,13.6h8
	L177.9,8.1z M143.8-1.3c7.3,0,12,5.5,12,11.9s-4.7,11.9-12,11.9h-6.2v9.1H130v-33H143.8z M148.1,10.6c0-3.1-2.1-5.7-5.3-5.7h-5.2
	v11.4h5.2C146.1,16.3,148.1,13.6,148.1,10.6z"/>
</svg>
