<?xml version="1.0" encoding="utf-8"?>
<!-- Generator: Adobe Illustrator 19.0.0, SVG Export Plug-In . SVG Version: 6.00 Build 0)  -->
<svg version="1.1" id="Layer_1" xmlns="http://www.w3.org/2000/svg" xmlns:xlink="http://www.w3.org/1999/xlink" x="0px" y="0px"
	 viewBox="384 -120.1 800 272.1" style="enable-background:new 384 -120.1 800 272.1;" xml:space="preserve">
<style type="text/css">
	.st0{fill:#FFFFFF;}
</style>
<path class="st0" d="M1037,110V-80.2h14V110H1037z M959.3-16.8h13.9v60.3h-14.6L936.9,4.7v38.8h-14v-60.3h14.6l21.8,39.3V-16.8z
	 M867.9-18.3c20,0,31.9,15.2,31.9,31.7c0,16.5-11.9,31.7-31.9,31.7c-20.1,0-32-15.2-32-31.7C836-3.2,847.9-18.3,867.9-18.3z
	 M885.6,13.4c0-9.9-6.7-19.1-17.7-19.1c-11,0-17.7,9.2-17.7,19.1s6.6,19.1,17.7,19.1C878.9,32.5,885.6,23.3,885.6,13.4z M642.6-4.7
	v-12.1h41.3v12.1h-13.7v48.2h-14V-4.7H642.6z M790.5,8.1h22.8V19h-22.8v13.3h22.8v11.2h-36.8v-60.3h36.8v11.2h-22.8V8.1z
	 M730.9-16.8c13.4,0,22,10.1,22,21.8c0,8.4-4.5,15.9-12,19.5l12.1,19h-16.2l-10.7-16.7h-6.5v16.7h-14v-60.3H730.9z M738.7,5
	c0-5.6-3.8-10.4-9.6-10.4h-9.6v20.8h9.6C734.9,15.4,738.7,10.6,738.7,5z M615.3,36.2h-21.5l-2.3,7.3h-14.9l21.5-60.3H611l21.8,60.3
	h-15.2L615.3,36.2z M604.6,0.4l-7.4,24.8h14.6L604.6,0.4z M542.2-16.8c13.4,0,22,10.1,22,21.8s-8.6,21.8-22,21.8H531v16.7h-14v-60.3
	H542.2z M550.2,5c0-5.6-3.8-10.4-9.6-10.4H531v20.8h9.6C546.4,15.4,550.2,10.6,550.2,5z"/>
</svg>
